HIERARCHY
ROOT hip
{
	OFFSET 0.000000 0.000000 0.000000 
	CHANNELS 6 Xposition Yposition Zposition Xrotation Zrotation Yrotation
	JOINT abdomen
	{
		OFFSET 0.000000 3.402643 0.000000 
		CHANNELS 3 Xrotation Zrotation Yrotation
		JOINT chest
		{
			OFFSET 0.000000 8.438565 -0.680529 
			CHANNELS 3 Xrotation Zrotation Yrotation
			JOINT neck
			{
				OFFSET 0.000000 10.207942 -0.272212 
				CHANNELS 3 Xrotation Zrotation Yrotation
				JOINT head
				{
					OFFSET 0.000000 3.130431 0.000000 
					CHANNELS 3 Xrotation Zrotation Yrotation
					End Site
					{
						OFFSET 0.000000 3.130435 0.000000 
					}
				}
			}
			JOINT lCollar
			{
				OFFSET 3.470700 6.669187 -0.816635 
				CHANNELS 3 Yrotation Zrotation Xrotation
				JOINT lShldr
				{
					OFFSET 3.198488 0.000000 0.000000 
					CHANNELS 3 Zrotation Yrotation Xrotation
					JOINT lForeArm
					{
						OFFSET 10.139888 0.000000 0.000000 
						CHANNELS 3 Yrotation Zrotation Xrotation
						JOINT lHand
						{
							OFFSET 8.370511 0.000000 0.000000 
							CHANNELS 3 Zrotation Yrotation Xrotation
							End Site
							{
								OFFSET 4.083176 0.000000 0.000000 
							}
						}
					}
				}
			}
			JOINT rCollar
			{
				OFFSET -3.470700 6.669187 -0.816635 
				CHANNELS 3 Yrotation Zrotation Xrotation
				JOINT rShldr
				{
					OFFSET -3.198488 0.000000 0.000000 
					CHANNELS 3 Zrotation Yrotation Xrotation
					JOINT rForeArm
					{
						OFFSET -10.139888 0.000000 0.000000 
						CHANNELS 3 Yrotation Zrotation Xrotation
						JOINT rHand
						{
							OFFSET -8.370511 0.000000 0.000000 
							CHANNELS 3 Zrotation Yrotation Xrotation
							End Site
							{
								OFFSET -4.083176 0.000000 0.000000 
							}
						}
					}
				}
			}
		}
	}
	JOINT lThigh
	{
		OFFSET 5.308129 -1.633274 1.361059 
		CHANNELS 3 Xrotation Zrotation Yrotation
		JOINT lShin
		{
			OFFSET -2.041588 -20.007561 0.000000 
			CHANNELS 3 Xrotation Zrotation Yrotation
			JOINT lFoot
			{
				OFFSET 0.000000 -19.190928 -1.224953 
				CHANNELS 3 Xrotation Yrotation Zrotation
				End Site
				{
					OFFSET 0.000000 -2.449906 4.627600 
				}
			}
		}
	}
	JOINT rThigh
	{
		OFFSET -5.308129 -1.633274 1.361059 
		CHANNELS 3 Xrotation Zrotation Yrotation
		JOINT rShin
		{
			OFFSET 2.041588 -20.007561 0.000000 
			CHANNELS 3 Xrotation Zrotation Yrotation
			JOINT rFoot
			{
				OFFSET 0.000000 -19.190928 -1.224953 
				CHANNELS 3 Xrotation Yrotation Zrotation
				End Site
				{
					OFFSET 0.000000 -2.449906 4.627600 
				}
			}
		}
	}
}
MOTION
Frames: 8
Frame Time: 0.033333
-3.731950 43.717937 -57.152435 7.021484 -3.691406 43.065777 22.265625 7.832032 0.136719 -7.041016 -2.763672 -2.265625 -14.941406 1.582031 -18.456680 -0.175781 4.218750 -18.115236 4.775391 10.175781 0.330306 -87.763672 -47.255863 55.881500 -77.617188 -2.880859 -28.407711 14.902343 3.271484 0.732422 -7.031250 -2.402344 0.049237 66.748047 52.431641 2.705078 84.560547 3.281250 -39.815014 -26.650391 -7.822267 3.398438 -15.621706 17.463268 18.545584 41.761772 -0.696111 -2.418280 -23.023409 6.082121 -4.920760 -37.861237 -19.248226 -16.029058 48.427631 0.162387 2.859000 -11.995862 11.875352 9.507520 
-3.772168 43.694454 -57.029572 7.197265 -3.691406 43.232422 22.080078 7.656250 0.097656 -7.041016 -2.763672 -2.089844 -15.126953 1.933594 -18.642580 -0.537109 4.042969 -18.291018 5.283204 10.361329 0.388869 -86.923828 -48.896484 54.013672 -81.074219 -2.851563 -28.671873 15.380860 1.591797 0.361599 -7.382812 -2.578125 0.010205 67.109375 53.535156 5.019531 90.800781 3.369141 -40.781250 -27.167969 -6.425781 2.851562 -15.605345 17.274910 18.375460 41.762047 -0.702607 -2.410929 -22.820332 6.257960 -4.841399 -37.899696 -19.452545 -16.689253 48.776012 0.175715 2.696892 -12.165706 11.946397 9.556121 
-3.820640 43.692829 -56.909031 7.197265 -3.691406 43.232422 22.089842 7.792968 0.312500 -7.041016 -2.587891 -2.089844 -15.292968 2.109375 -18.808237 -0.712891 4.042969 -18.291016 5.781250 10.390626 0.496286 -86.240234 -50.781250 51.015621 -84.980469 -2.910156 -29.179686 14.814451 0.302734 -0.126953 -7.910156 -2.578125 -0.009766 67.832031 54.853516 7.988280 95.800781 3.281250 -39.726559 -26.181643 -5.986328 2.441406 -15.644179 17.694220 18.529396 41.585773 -0.692939 -2.418094 -22.311676 6.139389 -4.937412 -37.928226 -19.647154 -17.506609 48.953773 -0.029294 2.820031 -12.116735 12.354929 9.929972 
-3.891428 43.687481 -56.837200 7.373046 -3.691406 43.417969 22.089842 7.792968 0.312500 -7.392578 -2.412109 -1.914473 -15.126955 2.275391 -18.984375 -1.064453 3.867187 -18.642580 6.142578 10.742188 0.398570 -85.566406 -52.460934 46.925850 -88.847656 -2.890625 -30.009274 12.333983 -0.683594 -0.322266 -8.076173 -2.949219 0.107422 68.769531 56.054691 10.291305 99.326172 3.310547 -37.149002 -21.982422 -5.302735 1.787109 -15.642282 18.246075 19.547056 41.749924 -0.595410 -2.730707 -21.860413 5.453866 -4.770488 -37.907406 -19.977858 -18.099735 48.976974 -0.029250 2.462547 -12.438691 13.027758 10.127253 
-3.988255 43.695736 -56.828365 7.373047 -3.867188 43.593094 22.080078 7.753906 0.479833 -7.568360 -2.236328 -1.738281 -15.126953 2.109375 -19.169924 -1.064453 3.681641 -18.817732 6.640625 10.937499 0.449219 -84.404297 -54.375000 42.355347 -92.792969 -2.871094 -26.767582 12.343750 -0.019531 -0.146488 -8.251954 -3.125000 0.068359 70.634766 57.695313 12.324220 102.109375 3.212891 -35.410156 -17.275389 -4.863281 1.092924 -15.986007 18.582914 20.202158 42.103535 -0.888414 -2.689478 -21.583988 4.581261 -5.710546 -37.899910 -20.155926 -19.263529 48.953773 -0.029295 2.820030 -12.149757 13.319843 10.059458 
-4.096240 43.687248 -56.941467 7.900392 -3.876954 43.749340 22.080078 7.714844 0.654297 -7.744140 -2.236328 -1.562881 -15.468749 2.460938 -19.511297 -0.878906 3.515625 -19.149792 7.275391 11.855470 0.535103 -83.583984 -56.298828 34.737968 -97.666016 -2.470703 -21.181360 11.162109 7.343750 1.163359 -8.603516 -3.476563 0.000592 74.550781 59.589844 15.594360 104.218750 3.310547 -35.097656 -14.521484 -6.152344 1.268486 -16.345848 18.764410 21.916321 41.572983 -0.706093 -2.761733 -21.858065 2.580377 -6.104632 -38.600517 -20.690269 -19.710907 48.954151 -0.019643 2.814534 -11.726717 13.890632 10.074444 
-4.208992 43.663887 -57.181038 8.613282 -4.052734 43.925091 22.080078 7.675781 0.821617 -8.271484 -2.402344 -1.386719 -15.126953 2.460938 -19.873047 -1.064453 3.339844 -19.521484 7.949219 12.587891 0.456856 -81.591797 -57.548824 23.896482 -101.914063 -2.421875 -18.085938 12.080078 12.412110 2.209132 -8.945312 -4.023438 0.069045 78.388672 61.230469 18.992933 105.429688 3.173828 -32.734375 -13.691407 -10.107423 1.865234 -17.390514 18.890755 22.999800 42.451782 -1.067550 -2.773247 -22.561787 0.033837 -7.298250 -39.694019 -21.236633 -20.292637 48.953773 -0.029296 2.820030 -11.268562 14.062335 9.902442 
-4.303029 43.590424 -57.545784 9.492188 -4.052734 43.768837 22.255859 7.597657 1.162109 -9.150390 -2.929688 -1.045421 -14.765624 2.636719 -20.214249 -1.240234 3.505859 -19.872450 8.583984 13.505859 0.544594 -79.335938 -59.306641 12.255859 -106.191406 -2.519531 -19.814453 17.138672 12.226563 3.283320 -9.101563 -4.746094 0.117187 82.871094 62.724613 23.123917 105.566406 3.017578 -30.332548 -12.763671 -13.564452 2.507477 -18.640797 19.282093 24.050203 43.685268 -0.898691 -2.756238 -22.702049 -3.818719 -8.878031 -41.060818 -22.242085 -19.930241 48.954006 -0.195376 2.728831 -10.528136 14.403604 9.747849 
